<mxfile host="app.diagrams.net" agent="Mozilla/5.0 (Windows NT 10.0; Win64; x64; rv:135.0) Gecko/20100101 Firefox/135.0" version="26.0.11">
  <diagram name="Page-1" id="EEWq-LYywZsjr-8HUKzn">
    <mxGraphModel dx="1050" dy="566" grid="1" gridSize="10" guides="1" tooltips="1" connect="1" arrows="1" fold="1" page="1" pageScale="1" pageWidth="827" pageHeight="1169" math="0" shadow="0">
      <root>
        <mxCell id="0" />
        <mxCell id="1" parent="0" />
        <mxCell id="HrDyO8nvaBUC3kqXnFug-1" value="" style="rounded=1;whiteSpace=wrap;html=1;" parent="1" vertex="1">
          <mxGeometry x="100" y="40" width="580" height="460" as="geometry" />
        </mxCell>
        <mxCell id="lXcPuruQBqpot0zOTHIt-2" value="Employé" style="shape=umlActor;verticalLabelPosition=bottom;verticalAlign=top;html=1;outlineConnect=0;" parent="1" vertex="1">
          <mxGeometry x="30" y="70" width="30" height="60" as="geometry" />
        </mxCell>
        <mxCell id="lXcPuruQBqpot0zOTHIt-3" value="&lt;div&gt;Commerçant&lt;/div&gt;" style="shape=umlActor;verticalLabelPosition=bottom;verticalAlign=top;html=1;outlineConnect=0;" parent="1" vertex="1">
          <mxGeometry x="30" y="400" width="30" height="60" as="geometry" />
        </mxCell>
        <mxCell id="f-XQC71uX94ksuNOsDdL-1" value="" style="ellipse;whiteSpace=wrap;html=1;" vertex="1" parent="1">
          <mxGeometry x="280" y="270" width="180" height="80" as="geometry" />
        </mxCell>
        <mxCell id="f-XQC71uX94ksuNOsDdL-2" value="" style="ellipse;whiteSpace=wrap;html=1;" vertex="1" parent="1">
          <mxGeometry x="280" y="50" width="180" height="80" as="geometry" />
        </mxCell>
        <mxCell id="f-XQC71uX94ksuNOsDdL-3" value="S&#39;identifier" style="ellipse;whiteSpace=wrap;html=1;" vertex="1" parent="1">
          <mxGeometry x="130" y="240" width="99" height="50" as="geometry" />
        </mxCell>
        <mxCell id="f-XQC71uX94ksuNOsDdL-4" value="" style="ellipse;whiteSpace=wrap;html=1;" vertex="1" parent="1">
          <mxGeometry x="280" y="380" width="180" height="80" as="geometry" />
        </mxCell>
        <mxCell id="f-XQC71uX94ksuNOsDdL-5" value="Employeur" style="shape=umlActor;verticalLabelPosition=bottom;verticalAlign=top;html=1;" vertex="1" parent="1">
          <mxGeometry x="26" y="182" width="30" height="60" as="geometry" />
        </mxCell>
        <mxCell id="f-XQC71uX94ksuNOsDdL-6" value="Administrateur" style="shape=umlActor;verticalLabelPosition=bottom;verticalAlign=top;html=1;outlineConnect=0;" vertex="1" parent="1">
          <mxGeometry x="30" y="294" width="30" height="60" as="geometry" />
        </mxCell>
        <mxCell id="f-XQC71uX94ksuNOsDdL-7" value="" style="ellipse;whiteSpace=wrap;html=1;" vertex="1" parent="1">
          <mxGeometry x="275" y="160" width="185" height="80" as="geometry" />
        </mxCell>
        <mxCell id="f-XQC71uX94ksuNOsDdL-8" value="" style="endArrow=none;dashed=1;html=1;dashPattern=1 3;strokeWidth=2;rounded=0;exitX=0.081;exitY=0.21;exitDx=0;exitDy=0;entryX=1;entryY=0.5;entryDx=0;entryDy=0;exitPerimeter=0;" edge="1" parent="1" source="f-XQC71uX94ksuNOsDdL-1" target="f-XQC71uX94ksuNOsDdL-3">
          <mxGeometry width="50" height="50" relative="1" as="geometry">
            <mxPoint x="429" y="330" as="sourcePoint" />
            <mxPoint x="479" y="280" as="targetPoint" />
          </mxGeometry>
        </mxCell>
        <mxCell id="f-XQC71uX94ksuNOsDdL-14" value="Include" style="edgeLabel;html=1;align=center;verticalAlign=middle;resizable=0;points=[];" vertex="1" connectable="0" parent="f-XQC71uX94ksuNOsDdL-8">
          <mxGeometry x="-0.049" y="1" relative="1" as="geometry">
            <mxPoint y="1" as="offset" />
          </mxGeometry>
        </mxCell>
        <mxCell id="f-XQC71uX94ksuNOsDdL-9" value="" style="endArrow=none;dashed=1;html=1;rounded=0;exitX=0;exitY=0.5;exitDx=0;exitDy=0;entryX=0.624;entryY=0.928;entryDx=0;entryDy=0;entryPerimeter=0;" edge="1" parent="1" source="f-XQC71uX94ksuNOsDdL-4" target="f-XQC71uX94ksuNOsDdL-3">
          <mxGeometry width="50" height="50" relative="1" as="geometry">
            <mxPoint x="409" y="431" as="sourcePoint" />
            <mxPoint x="212.7722322484051" y="308.3576451552532" as="targetPoint" />
          </mxGeometry>
        </mxCell>
        <mxCell id="f-XQC71uX94ksuNOsDdL-15" value="Include" style="edgeLabel;html=1;align=center;verticalAlign=middle;resizable=0;points=[];" vertex="1" connectable="0" parent="f-XQC71uX94ksuNOsDdL-9">
          <mxGeometry x="0.1968" y="-2" relative="1" as="geometry">
            <mxPoint as="offset" />
          </mxGeometry>
        </mxCell>
        <mxCell id="f-XQC71uX94ksuNOsDdL-10" value="" style="endArrow=none;dashed=1;html=1;dashPattern=1 3;strokeWidth=2;rounded=0;entryX=1;entryY=0;entryDx=0;entryDy=0;" edge="1" parent="1" source="f-XQC71uX94ksuNOsDdL-7" target="f-XQC71uX94ksuNOsDdL-3">
          <mxGeometry width="50" height="50" relative="1" as="geometry">
            <mxPoint x="327.8599999999999" y="144.67999999999998" as="sourcePoint" />
            <mxPoint x="189.99640687119296" y="269.99572875253784" as="targetPoint" />
          </mxGeometry>
        </mxCell>
        <mxCell id="f-XQC71uX94ksuNOsDdL-13" value="Include" style="edgeLabel;html=1;align=center;verticalAlign=middle;resizable=0;points=[];" vertex="1" connectable="0" parent="f-XQC71uX94ksuNOsDdL-10">
          <mxGeometry x="0.0071" relative="1" as="geometry">
            <mxPoint x="31" y="-11" as="offset" />
          </mxGeometry>
        </mxCell>
        <mxCell id="f-XQC71uX94ksuNOsDdL-11" value="" style="endArrow=none;dashed=1;html=1;dashPattern=1 3;strokeWidth=2;rounded=0;exitX=0.5;exitY=0;exitDx=0;exitDy=0;entryX=0;entryY=1;entryDx=0;entryDy=0;" edge="1" parent="1" source="f-XQC71uX94ksuNOsDdL-3" target="f-XQC71uX94ksuNOsDdL-2">
          <mxGeometry width="50" height="50" relative="1" as="geometry">
            <mxPoint x="439" y="340" as="sourcePoint" />
            <mxPoint x="469" y="322" as="targetPoint" />
          </mxGeometry>
        </mxCell>
        <mxCell id="f-XQC71uX94ksuNOsDdL-12" value="Include" style="edgeLabel;html=1;align=center;verticalAlign=middle;resizable=0;points=[];" vertex="1" connectable="0" parent="f-XQC71uX94ksuNOsDdL-11">
          <mxGeometry x="-0.0132" y="6" relative="1" as="geometry">
            <mxPoint as="offset" />
          </mxGeometry>
        </mxCell>
        <mxCell id="f-XQC71uX94ksuNOsDdL-19" value="&lt;div&gt;Service&lt;/div&gt;&lt;div&gt;Compensation&lt;/div&gt;" style="shape=umlActor;verticalLabelPosition=bottom;verticalAlign=top;html=1;outlineConnect=0;" vertex="1" parent="1">
          <mxGeometry x="750" y="70" width="30" height="60" as="geometry" />
        </mxCell>
      </root>
    </mxGraphModel>
  </diagram>
</mxfile>
